<svg xmlns:rdf="http://www.w3.org/1999/02/22-rdf-syntax-ns#" xmlns="http://www.w3.org/2000/svg" xmlns:cc="http://creativecommons.org/ns#" xmlns:dc="http://purl.org/dc/elements/1.1/" enable-background="new 0 0 800 261.953" xml:space="preserve" height="67.488425" width="201.99998" version="1.1" style=""><rect id="backgroundrect" width="100%" height="100%" x="0" y="0" fill="none" stroke="none"/><g class="currentLayer" style=""><title>Layer 1</title><path fill="#595959" d="m168.12,56.832 c-0.003000000000000001,0 -0.6185,0.5487500000000001 -0.6185,0.5487500000000001 c-0.8795000000000001,0.78625 -1.7845,1.6280000000000001 -2.8770000000000002,1.207 c-0.30175,-0.10975000000000001 -0.514,-0.51175 -0.5650000000000001,-0.8237500000000001 c-0.04970000000000001,-2.2505 0.9637500000000001,-4.3358 1.9465,-6.3662 l0.252,-0.531 c2.827,-4.7202 6.113,-10.282 10.939,-14.142 c0.81325,-0.5867500000000001 1.6958000000000002,-1.0798 2.6272,-0.6952500000000001 c0.21425000000000002,0.20075 0.46375,0.5487500000000001 0.46375,0.8960000000000001 c0,0.11025000000000001 -0.09770000000000004,0.40275 -0.15425000000000003,0.49375 c-1.3478,2.1782 -2.6315,4.465 -3.8798000000000004,6.6602 c-2.4395000000000002,4.3365 -4.9702,8.8185 -8.134,12.753 zm-26.149,-11.124 c-0.18475000000000003,0.12875 -3.4450000000000003,-0.9695 -4.075,-3.9882 c-0.5345,-2.599 1.2551999999999999,-4.6298 2.9868,-5.6535 c0.7432500000000001,-0.5857500000000001 1.8628,-0.7865 2.684,-0.49500000000000005 c0.7622500000000001,0.513 0.9687500000000001,1.4285 0.9687500000000001,2.415 c0,0.6050000000000001 -0.08020000000000002,1.2265000000000001 -0.15100000000000002,1.7934999999999999 c0,0 -0.013500000000000003,0.11025000000000001 -0.015700000000000002,0.1285 c-0.54325,2.0302 -1.3745,4.0248 -2.3978,5.7998 zm-12.454,12.277 c-0.3325000000000001,-0.49400000000000005 -0.44275000000000003,-1.0342 -0.45375,-1.6182 c-0.06380000000000001,-3.5875 3.7960000000000003,-10.012 6.5205,-13.512 h0.006000000000000002 c1.1418,2.5 3.7272,4.107 5.288,4.7842 c-1.9385,4.3182 -8.5868,13.566 -11.36,10.346 zm47.054,0.6370000000000001 c-0.6452500000000001,0.43900000000000006 -1.5518,0.1015 -1.2128,-0.9045 c0.8442500000000001,-2.5615 4.2008,-7.7815 4.2008,-7.7815 l9.349,-16.582 h-6.404 c-0.30425,0.5 -0.95525,1.6482 -0.95525,1.6482 c-0.29625,-0.49350000000000005 -1.1822,-1.5910000000000002 -1.5470000000000002,-1.828 c-1.5645,-0.98875 -3.8600000000000003,-0.52125 -5.4435,0.37500000000000006 c-6.8848,4.0258 -11.908,11.98 -15.870000000000001,18.182 c0,0 -4.1702,6.8950000000000005 -6.4852,7.4078 c-1.8072,0.14650000000000002 -1.6208,-2.2880000000000003 -1.5425,-2.8552 c0.6987500000000002,-4.099 2.3215,-7.9958 3.9565,-11.527 c3.3252,-2.3052 7.1202,-5.324 10.569,-8.6355 c7.4845,-7.1545 13.794,-15.26 14.716,-17.071 c0,0 -0.99825,0.2015 -2.177,0.23775000000000002 c-5.758,8.032 -17.541,19.706 -21.113,21.443 c1.5825,-3.8062 11.807,-21.974 20.508,-30.664 l1.3692,-1.3178 c2.117,-2.0675 4.3108,-4.1898 6.0202,-4.5375 c0.18050000000000002,-0.0182 0.41300000000000003,0 0.6137500000000001,0.42150000000000004 c0.0763,1.6098000000000001 -0.523,2.7992 -1.2105000000000001,4.1530000000000005 l-0.9635,1.9763 s1.3648,-0.25625 2.261,-0.5497500000000001 c1.04,-1.9568 2.1918,-4.1530000000000005 1.7672,-6.768800000000001 c-0.14175000000000001,-0.8417400000000002 -0.7510000000000001,-1.482 -1.5472000000000001,-1.6285 c-2.5955,-0.49400000000000005 -5.4242,1.4265 -7.7002,2.9821999999999997 l-0.09200000000000003,0.054500000000000014 c-11.7,9.1665 -21.58,22.377 -30.218,40.417 c-0.6260000000000001,0.47500000000000003 -3.0448,1.0428 -3.456,0.7680000000000001 c0.8530000000000001,-1.7560000000000002 1.927,-4.1168 2.4645,-6.6782 c0.09300000000000003,-0.7320000000000001 0.17950000000000002,-1.4818 0.17950000000000002,-2.2135 c0,-1.5748000000000002 -0.37800000000000006,-3.0562 -1.7888000000000002,-4.0805 c-1.6540000000000001,-0.8235 -3.6982,-0.43900000000000006 -5.0765,0.18275000000000002 c-6.1745,2.5615 -10.789,8.8925 -14.119,14.106 c-1.791,3.3125 -3.5768,6.8602 -4.0712,10.923 c-0.34825000000000006,3.183 0.36075,5.2322 2.1705,6.2572 c1.8612000000000002,0.9507500000000001 4.2038,-0.037500000000000006 5.124,-0.51275 c6.2552,-3.2932 10.626,-9.8978 14.071,-15.936 c0.137,-0.018000000000000002 2.018,-0.07250000000000001 3.4408000000000003,-0.43900000000000006 c0.019000000000000003,0 0.027000000000000007,0 0.05850000000000001,0.019200000000000002 c-0.08150000000000002,0.27325 -0.8167500000000001,2.4695 -0.8167500000000001,2.4695 c-2.1835,6.4032 -3.1932,10.758000000000001 -1.1308,13.338000000000001 c2.9472,3.6412 7.8265,-0.1275 11.796,-5.105 c-0.8520000000000001,5.9645 2.2392,6.898 4.5955,6.441 c2.7068000000000003,-0.7315 5.723,-3.623 7.1228,-5.1045 c-0.44950000000000007,1.7378 -0.32725000000000004,4.8485 2.135,5.1592 c1.6878000000000002,0.31200000000000006 2.9508,-0.6060000000000001 4.4122,-1.393 c5.2422,-2.8545 11.518,-12.366 13.147,-15.116 h-2.1362 c-2.316,3.5002 -5.2632,8.0895 -8.9705,10.268 zm-80.761,-35.518 h5.9998000000000005 l3.3862,-5.5 h-6.001 zm95.841,-14.611 c-4.5748,2.5985 -9.317,4.2813 -15.058,3.696 c-1.5910000000000002,1.7934999999999999 -3.14,3.6412 -4.5678,5.5438 c8.0572,2.0492 16.599,-2.5065 21.363,-6.8422 c5.0395,-4.373 7.6238,-9.8797 7.6238,-9.8797 s-3.7775,4.3175 -9.3612,7.4822 zm-50.45,-1.3900000000000001 c-0.9540000000000001,10.941 -9.4588,17.364 -11.563,17.875 c-1.2752,0.25575 -3.4512,-0.31100000000000005 -1.5088,-4.9028 c2.8608000000000002,-6.1848 7.7448,-11.435 12.985,-14.125 c0.1275,0.4575 0.12425000000000001,0.7495 0.08670000000000003,1.1525 zm-16.572,27.572 c-0.6092500000000001,-1.3170000000000002 -2.0558,-2.1588 -3.5972,-2.0675 c-5.0058,0.45775 -9.902,4.5742 -12.473,10.484 c-1.3490000000000002,3.0375 -2.0852,5.5438 -2.568,9.5322 c1.5565,-1.7925 4.7315000000000005,-4.738 8.3345,-6.3482 c0,0 0.49025,-3.8238000000000003 2.9901999999999997,-7.227 c0.9460000000000001,-1.4092 2.8392,-3.6778000000000004 4.965,-3.0742 c1.8572000000000002,0.6225 1.2045,5.7638 -1.264,10.739 c-1.8265,3.6598 -4.6215,7.32 -7.4495000000000005,9.8442 c-2.5002,2.1225 -6.1995000000000005,4.6838 -9.436,2.708 c-2.0385,-1.207 -3.0782,-3.7325 -2.8585000000000003,-6.9892 c0.974,-9.2392 5.1798,-17.107 11.198,-26.072 c6.206,-8.3248 13.047,-16.869 22.263,-21.426 c1.8798000000000001,-0.95125 3.6205,-1.1708 5.1252,-0.58525 c0,0 -8.651,4.757 -12.775,13.558 c-1.049,2.2325 -2.508,5.2505 -1.0388,7.922 c0.7677500000000002,1.3902 2.1310000000000002,1.5002 3.2285,1.427 c5.0548,-1.1712 8.320500000000001,-5.8915 10.989,-10.209 c1.5470000000000002,-3.275 2.922,-6.5318000000000005 2.922,-10.155 c0,-0.43900000000000006 -0.022800000000000004,-1.0242 -0.06000000000000001,-1.4638 c2.415,-1.2802 7.367,0.988 7.367,0.988 c3.8698,1.2812000000000001 12.11,7.5938 14.889,8.8008 c1.3558000000000001,-1.5732 3.5838,-3.9515000000000002 4.8382000000000005,-5.141 l-1.816,-1.1162 c-2.9074999999999998,-1.7748 -5.9808,-3.4582 -9.0058,-5.123 c-6.8698,-3.7502 -12.462,-2.4332000000000003 -15.308,-1.4085 c-1.1185,0.40225 -2.1408,0.7500000000000001 -2.1408,0.7500000000000001 c-2.112,-2.3052 -5.5758,-2.0862 -8.128,-1.4637 c-9.1785,2.6345 -17.7,9.0562 -26.836,20.199 c-6.7170000000000005,8.7275 -10.884,16.266 -13.104,23.712 c-1.7118000000000002,5.0128 -2.232,12.386 1.9460000000000002,16.759 c3.5522,3.713 8.2625,2.9088000000000003 11.589,1.5735000000000001 c7.2068,-3.5495 13.684000000000001,-11.198 16.912,-19.998 c0.77875,-2.616 1.6432000000000002,-6.3118 0.30225,-9.1298 zm-79.885,-8.4888 c-0.012000000000000002,0.036500000000000005 -1.224,2.8172 -1.224,2.8172 c-0.17525000000000002,0.14625000000000002 -0.45225,0.0733 -0.7697500000000002,0 l-0.544,-0.09200000000000003 c-1.7082000000000002,-0.53025 -2.9968,-1.6648 -3.394,-3.0185 c-0.548,-2.6348000000000003 1.7028,-4.7022 2.6945,-5.452 c0.9515,-0.6592500000000001 2.4308,-1.0068 3.2898,-0.32950000000000007 c0.52975,0.6222500000000001 0.7305,1.427 0.7305,2.3058 c0.0002500000000000001,1.189 -0.36675,2.5244999999999997 -0.783,3.769 zm-2.6035,5.287 s-0.05500000000000001,0.16525000000000004 -0.08220000000000002,0.21925000000000003 c-0.007000000000000002,0 -2.755,4.482 -2.755,4.482 c-1.6585,2.2142 -3.7292,4.996 -6.3178,6.331 c-0.7672500000000001,0.25625 -1.8278,0.42125 -2.3682,-0.25525 c-1.1458,-1.3725 -0.55525,-3.2752 -0.07550000000000001,-4.812 l0.16975000000000004,-0.549 c1.3755000000000002,-3.732 3.558,-7.026 5.6822,-10.082 c0.026500000000000006,-0.018000000000000002 0.08600000000000002,-0.0362 0.10750000000000001,-0.0362 c0.005000000000000001,0.018300000000000004 0.013500000000000003,0.018300000000000004 0.017200000000000003,0.05500000000000001 c1.3330000000000002,2.561 3.8325,3.7498 5.7018,4.2995 c0.011300000000000003,0 0.023300000000000008,0.0182 0.023300000000000008,0.05500000000000001 c0.0002500000000000001,0.054500000000000014 -0.030300000000000007,0.12825 -0.10300000000000001,0.29225 zm34.376,-2.9455 c1.2292,-1.7012 4.807,-6.2572 5.6792,-7.0255 c2.9335,-2.5808 4.106,-1.4452 4.2075,-0.6407500000000002 c-2.7378,4.9032 -5.969,10.52 -9.007,15.57 c0.006000000000000002,-0.018000000000000002 -0.9507500000000001,1.4452 -0.9507500000000001,1.4452 c-1.3418,2.0488 -2.6928,3.8052 -4.8965,5.031 c-0.31425000000000003,0.09200000000000003 -0.83225,0.12875 -1.177,-0.12825 c-0.41500000000000004,-0.2745 -0.5787500000000001,-0.7320000000000001 -0.532,-1.208 c0.132,-1.573 1.7338,-6.384 6.6765,-13.044 zm-30.465,-11.124 c-3.7925,-2.4882 -11.415,2.2688 -17.52,10.428 c-5.583,7.3192 -7.9938,15.826 -5.3702,19.76 c3.9028,4.6288 11.148,-2.104 14.229,-5.7078 l0.3975000000000001,-0.42125 c2.0952,-2.2505 3.714,-4.9585 5.2808,-7.5568 c0,0 1.44,-2.3785 1.5088,-2.4885 c0.8900000000000001,-0.16400000000000003 1.9620000000000002,-0.42025 3.17,-0.7680000000000001 c-0.017200000000000003,0.054500000000000014 -4.6218,7.7940000000000005 -4.152,11.636 c0.14625000000000002,1.172 0.03450000000000001,5.4532 4.2145,6.752 c5.571,0.9337500000000001 10.02,-3.3848000000000003 13.944,-7.227 c0,0 0.6687500000000002,-0.6397500000000002 1.047,-1.005 c-0.09570000000000004,0.38325000000000004 -0.22050000000000003,0.8945000000000001 -0.22050000000000003,0.8945000000000001 c-1.6310000000000002,5.672000000000001 0.5675,6.862 1.9428,7.3012 c4.1562,1.2082 9.1215,-4.83 9.1375,-4.83 c-0.12875,1.9020000000000001 -0.50525,3.4755000000000003 1.4998,4.738 c1.8925,0.6775000000000001 3.8078000000000003,-0.35525 5.2635,-1.3250000000000002 c5.2438,-3.6958 9.4682,-9.48 12.88,-14.48 h-2.1765 c-0.025700000000000004,0 -5.3708,7.747 -8.8415,9.4308 c-0.005000000000000001,0 -0.6370000000000001,0.32425000000000004 -1.001,0.06770000000000002 c-0.4505,-0.38450000000000006 -0.27275,-1.1835 0.005000000000000001,-1.7495 c0.017500000000000005,-0.037000000000000005 13.401,-23.249 13.401,-23.249 h-6.319 s-0.6902500000000001,1.1168 -0.7465,1.19 c-0.04250000000000001,-0.036500000000000005 -0.14375000000000002,-0.22850000000000004 -0.21400000000000002,-0.32050000000000006 c-3.915,-5.4155 -12.781,2.9145 -19.456,12.574 c-2.5698,3.7145 -5.8415,7.8968 -9.234,10.916 c0,0 -5.0258,4.607 -7.1732,1.2970000000000002 c-0.785,-1.3908 -0.5435,-3.424 -0.10075,-4.7592 c2.5002,-7.1172 6.8085,-13.576 11.711,-17.474 c1.3840000000000001,-1.0788 2.8882000000000003,-1.3908 3.6348000000000003,-0.93325 c0.71125,0.42150000000000004 0.8260000000000001,1.4635 0.37600000000000006,2.1772 c-1.1418,-0.036500000000000005 -2.0565,0.31050000000000005 -2.8002000000000002,1.079 c-1.465,1.537 -1.974,3.0192 -1.5082,4.41 c2.2628,3.22 6.7755,-3.1472 6.5572,-7.026 c-0.07800000000000001,-1.3908 -0.8200000000000001,-2.7078 -1.9272,-3.3488 c-1.6502000000000001,-0.9874999999999999 -4.1678,-0.7317500000000001 -5.797,0.05550000000000001 c-2.181,0.8230000000000001 -5.6335,3.6952000000000003 -7.6488000000000005,5.9278 c-2.537,2.7998000000000003 -6.888,5.9098 -8.2488,5.5615 c0.44575000000000004,-1.1898 4.121,-8.7092 0.25475,-11.526 zm31.762,40.709 c-7.442,-4.7940000000000005 -17.542,-5.6352 -33.83,-1.1162 c-17.364,4.0805 -23.154,6.6962 -30.757,1.4452 c-2.9210000000000003,-2.5795 -3.9683,-6.7328 -3.1862,-12.715 c1.8138,-9.7525 6.7152,-19.138 15.422,-29.548000000000002 c4.8598,-5.4155 9.3675,-10.063 15.32,-11.929 c4.562,-1.1708 4.1355,2.4145 3.5835,2.9272 c-0.5825,0 -1.561,0.09180000000000002 -2.3172,0.58525 c-0.6137500000000001,0.47600000000000003 -2.2985,2.013 -2.3890000000000002,4.0805 c-0.1305,3.165 3.145,2.5061999999999998 4.5578,0.7685000000000001 c1.5228000000000002,-1.9582000000000002 3.7732,-5.7083 2.003,-9.2033 c-0.7420000000000001,-1.244 -2.024,-2.1037 -3.6158,-2.3965 c-5.4505,-0.31150000000000005 -10.527,2.2867 -15.212,5.1592 c-10.243,7.117 -18.439,16.979 -23.076,27.774 c-2.6738,6.5132 -5.0918,15.843 -1.4672,23.437 c2.8038,5.269 8.6248,8.0678 15.57,7.4825 c4.8708,-0.51175 10.76,-2.086 14.722,-3.0365 c3.9612,-0.9520000000000001 24.238,-7.9222 30.901,4.209 c0,0 2.2155,-4.3008 7.7522,-4.3925 c4.552,-0.42000000000000004 11.119,1.3178 15.901,4.83 c-1.5932,-2.396 -6.1102,-5.9272 -9.8785,-8.361 z" id="svg_1" class="selected" fill-opacity="1"/></g></svg>