<?xml version="1.0" encoding="UTF-8" standalone="no"?>
<svg
   xmlns:dc="http://purl.org/dc/elements/1.1/"
   xmlns:cc="http://creativecommons.org/ns#"
   xmlns:rdf="http://www.w3.org/1999/02/22-rdf-syntax-ns#"
   xmlns:svg="http://www.w3.org/2000/svg"
   xmlns="http://www.w3.org/2000/svg"
   xmlns:sodipodi="http://sodipodi.sourceforge.net/DTD/sodipodi-0.dtd"
   xmlns:inkscape="http://www.inkscape.org/namespaces/inkscape"
   width="80"
   height="53"
   version="1.1"
   id="svg4710"
   sodipodi:docname="intel.svg"
   inkscape:version="0.92.4 (5da689c313, 2019-01-14)">
  <metadata
     id="metadata4716">
    <rdf:RDF>
      <cc:Work
         rdf:about="">
        <dc:format>image/svg+xml</dc:format>
        <dc:type
           rdf:resource="http://purl.org/dc/dcmitype/StillImage" />
        <dc:title></dc:title>
      </cc:Work>
    </rdf:RDF>
  </metadata>
  <defs
     id="defs4714" />
  <sodipodi:namedview
     pagecolor="#ffffff"
     bordercolor="#666666"
     borderopacity="1"
     objecttolerance="10"
     gridtolerance="10"
     guidetolerance="10"
     inkscape:pageopacity="0"
     inkscape:pageshadow="2"
     inkscape:window-width="1600"
     inkscape:window-height="838"
     id="namedview4712"
     showgrid="false"
     inkscape:zoom="12.622642"
     inkscape:cx="27.126308"
     inkscape:cy="26.5"
     inkscape:window-x="-8"
     inkscape:window-y="-8"
     inkscape:window-maximized="1"
     inkscape:current-layer="svg4710" />
  <g
     fill="#0071C5"
     id="g4708">
    <path
       d="M78.676 15.258C74.98-2.79 39.938-3.934 17.352 9.816v1.52C39.914-.266 71.918-.191 74.832 16.43c.977 5.5-2.121 11.23-7.656 14.53v4.313c6.656-2.441 13.484-10.34 11.5-20.015M37.62 46.848c-15.58 1.437-31.823-.828-34.1-13.004-1.114-6.004 1.625-12.371 5.253-16.328v-2.114C2.238 21.132-1.305 28.387.738 36.953c2.606 10.992 16.543 17.215 37.82 15.149 8.422-.817 19.438-3.528 27.102-7.735v-5.976c-6.957 4.144-18.457 7.57-28.039 8.457"
       id="path4704" />
    <path
       d="M64.398 12.633h-4.085v18.195c0 2.133 1.03 3.988 4.085 4.285v-22.48zm-48.652 6.644h-4.094l-.004 11.887c0 2.14 1.036 3.992 4.098 4.285V19.277zm-4.094-2.218h4.082v-3.875h-4.082zm28.563 18.203c-3.305 0-4.703-2.301-4.703-4.567V14.91h4.047v4.363h3.05v3.274h-3.05v7.898c0 .926.437 1.438 1.402 1.438h1.648v3.379h-2.394M50.96 22.355c-1.386 0-2.448.715-2.901 1.676-.262.578-.36 1.031-.387 1.742h6.238c-.078-1.742-.867-3.418-2.95-3.418m-3.288 6.18c0 2.07 1.293 3.598 3.586 3.598 1.797 0 2.683-.5 3.722-1.528l2.504 2.387c-1.605 1.586-3.289 2.547-6.254 2.547-3.878 0-7.59-2.113-7.59-8.281 0-5.274 3.247-8.254 7.5-8.254 4.325 0 6.81 3.488 6.81 8.07v1.461H47.671m-20.925-5.988c1.188 0 1.684.586 1.684 1.539v11.2h4.05V24.061c0-2.273-1.21-4.78-4.77-4.78l-8.366-.005v16.008h4.05V22.547h3.352z"
       id="path4706" />
  </g>
  <path
     style="fill:#1a1a1a;fill-opacity:1;stroke-width:0.07922272"
     d="M 27.522422,52.387554 C 20.852515,52.040663 15.243818,50.749605 10.837249,48.546819 5.1021986,45.679941 1.6929628,41.56706 0.62643008,36.22855 0.31594921,34.674444 0.23019432,33.792995 0.23019432,32.15576 c 0,-2.201397 0.26769571,-3.855421 0.96279828,-5.948884 1.1038818,-3.324597 3.0057976,-6.241578 6.0435665,-9.269058 l 1.430855,-1.426009 0.022235,1.0184 0.022235,1.018401 -0.3016096,0.328386 c -1.3817089,1.504372 -3.1344734,4.461076 -3.9334153,6.635202 -0.8956843,2.437387 -1.2935097,4.762506 -1.2116923,7.081823 0.308733,8.7518 7.3048891,14.099984 20.0980631,15.363887 4.275036,0.422353 10.129826,0.361359 15.052317,-0.156813 7.037917,-0.740852 15.257609,-2.87449 21.838294,-5.668703 1.285821,-0.54597 3.620651,-1.681544 4.59954,-2.237044 0.357962,-0.203137 0.669901,-0.369339 0.693199,-0.369339 0.0233,0 0.04236,1.318848 0.04236,2.930774 v 2.930774 l -1.247758,0.623987 c -6.853369,3.427274 -16.617356,6.119666 -25.450299,7.017849 -3.463006,0.352137 -8.4583,0.509513 -11.368461,0.358161 z"
     id="path4718"
     inkscape:connector-curvature="0" />
  <path
     style="fill:#1a1a1a;fill-opacity:1;stroke-width:0.07922272"
     d="m 67.173393,33.109241 v -2.089414 l 0.652022,-0.425907 c 3.613943,-2.360665 6.151386,-5.876875 6.958641,-9.642793 0.260026,-1.213045 0.296844,-3.189186 0.08275,-4.441377 C 74.249815,12.901137 72.248747,9.9161019 68.955904,7.692341 65.187399,5.1473495 60.040007,3.6831461 53.38864,3.2641491 51.553434,3.1485419 47.150091,3.2147265 45.189088,3.3873926 36.013556,4.1952973 26.809724,6.6972724 18.946562,10.521177 l -1.525037,0.741634 0.0016,-0.727519 0.0016,-0.7275192 0.453968,-0.2678702 c 11.321523,-6.6804642 26.089152,-10.01396629 38.79769,-8.7578333 10.378396,1.025818 17.902489,5.057898 20.834002,11.1647167 1.421386,2.96098 1.823822,6.455397 1.145027,9.942452 -0.329894,1.694703 -1.272314,4.072156 -2.214543,5.58665 -1.672858,2.688873 -4.099573,5.038245 -6.815234,6.598023 -0.784848,0.450789 -2.208908,1.124744 -2.376573,1.124744 -0.04616,0 -0.07567,-0.814703 -0.07567,-2.089414 z"
     id="path4720"
     inkscape:connector-curvature="0" />
  <path
     style="fill:#1a1a1a;fill-opacity:1;stroke-width:0.07922272"
     d="M 63.350965,34.886478 C 61.789166,34.465277 60.832614,33.508587 60.480688,32.015784 60.379539,31.586732 60.362413,30.164011 60.36141,22.1071 l -0.0012,-9.407698 h 2.02018 2.020179 v 11.170404 11.170403 l -0.257474,-0.0048 c -0.141611,-0.0026 -0.498082,-0.06966 -0.792159,-0.148965 z"
     id="path4722"
     inkscape:connector-curvature="0" />
  <path
     style="fill:#1a1a1a;fill-opacity:1;stroke-width:0.07922272"
     d="m 11.717489,15.155306 v -1.901345 h 1.980568 1.980568 v 1.901345 1.901346 h -1.980568 -1.980568 z"
     id="path4724"
     inkscape:connector-curvature="0" />
  <path
     style="fill:#1a1a1a;fill-opacity:1;stroke-width:0.07922272"
     d="m 15.480568,35.385578 c -1.370112,-0.279873 -1.985061,-0.549447 -2.617201,-1.147299 -0.227184,-0.214861 -0.523358,-0.597594 -0.658165,-0.850517 -0.498827,-0.935896 -0.487713,-0.759247 -0.487713,-7.75209 v -6.360784 h 1.980568 1.980568 v 8.080717 c 0,4.444395 -0.0089,8.076582 -0.01981,8.071528 -0.01089,-0.0051 -0.09111,-0.02376 -0.178251,-0.04155 z"
     id="path4726"
     inkscape:connector-curvature="0" />
  <path
     style="fill:#1a1a1a;fill-opacity:1;stroke-width:0.07922272"
     d="m 19.402093,27.28299 v -7.994887 l 4.614723,0.04085 c 5.105386,0.04519 5.228098,0.05613 6.167227,0.549626 0.994392,0.522538 1.691502,1.415964 2.063371,2.644442 0.179136,0.591776 0.179971,0.618676 0.207217,6.674515 l 0.02736,6.080343 H 30.457739 28.433486 V 29.44041 c 0,-5.732684 -0.0029,-5.843521 -0.163239,-6.174674 -0.125719,-0.2597 -0.256756,-0.383807 -0.570113,-0.53996 -0.403634,-0.201139 -0.422535,-0.202755 -2.371889,-0.202755 h -1.965013 v 6.377429 6.377429 h -1.980568 -1.980568 z"
     id="path4728"
     inkscape:connector-curvature="0" />
  <path
     style="fill:#1a1a1a;fill-opacity:1;stroke-width:0.07922272"
     d="M 38.747536,35.03823 C 38.429048,34.954795 37.98342,34.787897 37.757252,34.667344 37.140438,34.338569 36.34908,33.51488 36.053715,32.894208 35.548908,31.833419 35.565986,32.174182 35.564699,23.136996 l -0.0012,-8.219358 h 1.980568 1.980568 v 2.178625 2.178625 h 1.505231 1.505232 v 1.624066 1.624065 h -1.505232 -1.505231 v 4.182018 c 0,4.179357 1.11e-4,4.182243 0.178251,4.535501 0.271269,0.537944 0.583021,0.657121 1.822122,0.696566 l 1.01009,0.03215 v 1.614697 1.614699 l -1.60426,-0.0044 c -1.316,-0.0036 -1.70831,-0.03162 -2.183331,-0.156063 z"
     id="path4730"
     inkscape:connector-curvature="0" />
  <path
     style="fill:#595959;fill-opacity:1;stroke-width:0.07922272"
     d="m 49.998574,35.430718 c -3.752355,-0.487352 -5.9384,-2.979872 -6.277654,-7.157759 -0.371002,-4.568847 1.67792,-7.986183 5.384161,-8.980083 0.660075,-0.177012 0.916994,-0.203274 1.9861,-0.203016 1.000756,2.42e-4 1.339875,0.03102 1.832869,0.166327 2.028364,0.556721 3.582168,2.035308 4.353586,4.142836 0.435816,1.190659 0.5524,1.875522 0.602626,3.540082 l 0.046,1.524455 -5.140634,0.02039 -5.140634,0.02039 0.02837,0.435725 c 0.136372,2.094704 1.796489,3.401171 4.077811,3.209127 1.194162,-0.100526 2.025015,-0.431487 2.812431,-1.1203 l 0.412564,-0.3609 0.929331,0.872097 c 0.511133,0.479654 1.064,1.01137 1.228594,1.181591 l 0.299262,0.309494 -0.413569,0.350932 c -1.111145,0.942861 -2.000354,1.451363 -3.090301,1.767217 -1.137522,0.329641 -2.698885,0.441413 -3.930908,0.2814 z m 3.90632,-10.112272 c -0.127858,-1.023339 -0.594196,-1.990122 -1.172851,-2.431484 -0.8214,-0.626512 -2.174034,-0.730914 -3.25813,-0.251475 -0.964869,0.42671 -1.632757,1.392286 -1.77165,2.561299 l -0.06824,0.574365 h 3.163717 3.163718 z"
     id="path4732"
     inkscape:connector-curvature="0" />
  <path
     style="fill:#595959;fill-opacity:1;stroke-width:0.07922272"
     d="m 63.608371,34.909603 c -1.277435,-0.2711 -2.260765,-0.996375 -2.782701,-2.05244 -0.22371,-0.452648 -0.290857,-0.704105 -0.349243,-1.30788 -0.03976,-0.411119 -0.07325,-4.820527 -0.07443,-9.798685 l -0.0021,-9.051196 h 1.980568 1.980568 v 11.170404 c 0,8.886952 -0.02024,11.169083 -0.09903,11.163944 -0.05447,-0.0035 -0.34858,-0.05942 -0.653587,-0.124147 z"
     id="path4734"
     inkscape:connector-curvature="0" />
  <path
     style="fill:#595959;fill-opacity:1;stroke-width:0.07922272"
     d="M 67.26582,35.066617 C 67.23677,35.037567 67.213,34.116476 67.213,33.019745 v -1.994057 l 0.652694,-0.428838 c 0.944326,-0.620449 1.735436,-1.261403 2.623223,-2.125322 4.059964,-3.950813 5.499985,-9.03741 3.926833,-13.870781 C 73.738601,12.520254 72.430058,10.575561 70.61602,8.9537693 67.683034,6.3316109 63.197925,4.5098419 57.627055,3.6778899 54.961887,3.2798744 54.150444,3.2320494 50.140508,3.236646 46.098216,3.241276 45.350353,3.285065 42.020179,3.7120673 33.912618,4.7516374 25.239197,7.3298785 18.553105,10.687836 18.159876,10.885327 17.753317,11.079162 17.64964,11.11858 l -0.188504,0.07167 V 10.498383 9.8065187 l 1.366592,-0.7686386 c 7.49824,-4.2173774 16.407465,-7.0605464 25.252242,-8.05865697 2.858991,-0.32262984 3.634573,-0.36131024 7.209268,-0.35954576 3.695496,0.001824 4.822906,0.0689919 7.407324,0.44130663 11.212939,1.615351 18.40275,6.7783507 19.916346,14.301917 1.377613,6.847649 -1.733235,13.861883 -8.01284,18.067078 -0.735977,0.492853 -2.994872,1.689453 -3.189286,1.689453 -0.05068,0 -0.115914,-0.02377 -0.144962,-0.05282 z"
     id="path4736"
     inkscape:connector-curvature="0" />
  <path
     style="fill:#595959;fill-opacity:1;stroke-width:0.07922272"
     d="M 39.72272,35.117353 C 38.431917,35.0372 37.752203,34.756777 36.940778,33.969632 36.081337,33.13591 35.78433,32.484598 35.678064,31.200606 c -0.03979,-0.480782 -0.07293,-4.341133 -0.07364,-8.578558 l -0.0013,-7.70441 h 1.940957 1.940956 v 2.178625 2.178625 h 1.505232 1.505232 v 1.624066 1.624065 h -1.509673 -1.509672 l 0.02425,4.21861 0.02425,4.21861 0.191226,0.333827 c 0.275737,0.481358 0.570315,0.593169 1.74973,0.664135 0.544657,0.03277 0.999197,0.06228 1.01009,0.06557 0.01089,0.0033 0.01981,0.718983 0.01981,1.590433 v 1.584455 l -0.930867,-0.01237 c -0.511977,-0.0068 -1.340845,-0.03782 -1.841929,-0.06894 z"
     id="path4738"
     inkscape:connector-curvature="0" />
  <path
     style="fill:#595959;fill-opacity:1;stroke-width:0.07922272"
     d="m 19.441704,27.305253 v -7.972625 l 4.535501,0.04404 c 2.84063,0.02758 4.727931,0.07782 5.050448,0.134435 1.439414,0.252681 2.573641,1.289273 3.118405,2.849974 l 0.23627,0.676892 0.03589,6.119955 0.03589,6.119955 h -1.990502 -1.990502 l -0.0058,-5.565396 c -0.0032,-3.060968 -0.03256,-5.75348 -0.06528,-5.983361 -0.07353,-0.51651 -0.270636,-0.796815 -0.72278,-1.027849 -0.334571,-0.170958 -0.430821,-0.178252 -2.352238,-0.178252 h -2.003393 v 6.377429 6.377429 H 21.382657 19.4417 Z"
     id="path4740"
     inkscape:connector-curvature="0" />
  <path
     style="fill:#595959;fill-opacity:1;stroke-width:0.07922272"
     d="m 14.727952,35.168171 c -0.869598,-0.243042 -1.423418,-0.546014 -1.91101,-1.045436 -0.589478,-0.60378 -0.889977,-1.257384 -0.982494,-2.136981 -0.04099,-0.389744 -0.07517,-3.409128 -0.07594,-6.709745 l -0.0014,-6.001121 h 1.940957 1.940956 v 8.041106 c 0,7.607628 -0.0075,8.040788 -0.138639,8.035209 -0.07625,-0.0032 -0.423842,-0.08561 -0.772422,-0.183032 z"
     id="path4742"
     inkscape:connector-curvature="0" />
  <path
     style="fill:#595959;fill-opacity:1;stroke-width:0.07922272"
     d="m 11.7571,15.155306 v -1.901345 h 1.940957 1.940956 v 1.901345 1.901346 H 13.698057 11.7571 Z"
     id="path4744"
     inkscape:connector-curvature="0" />
  <path
     style="fill:#595959;fill-opacity:1;stroke-width:0.07922272"
     d="M 27.086697,52.341359 C 21.062544,51.874947 17.022983,51.065554 13.233234,49.565588 4.8275155,46.238641 0.4994131,40.652259 0.29164882,32.861584 0.22944353,30.529031 0.4165224,28.958662 0.99476796,26.959492 1.7301781,24.416956 3.1388502,21.758681 4.9200543,19.552167 5.64416,18.655163 7.0426448,17.153791 8.0138266,16.230785 L 8.6674141,15.60962 v 0.986986 c 0,0.959804 -0.00566,0.992275 -0.2052717,1.179046 -0.7270304,0.680242 -2.2562321,3.021565 -3.1524174,4.82659 -2.207213,4.445593 -2.6727393,9.091832 -1.3185422,13.159867 1.8917094,5.682732 7.4981012,9.385619 16.4089952,10.83775 3.111969,0.50713 5.968167,0.674699 10.528821,0.61771 3.612613,-0.04514 5.510075,-0.157251 8.341225,-0.492828 6.336164,-0.751027 13.515425,-2.583549 19.624395,-5.009169 1.686111,-0.669486 3.15101,-1.342227 5.057364,-2.32255 0.842573,-0.433284 1.546665,-0.78779 1.564648,-0.78779 0.01798,0 0.0327,1.30356 0.0327,2.8968 v 2.8968 l -1.32698,0.637104 c -3.670455,1.762243 -6.635016,2.879334 -10.992153,4.14201 -5.546477,1.607339 -11.069428,2.602762 -16.755605,3.019926 -1.591739,0.116777 -8.39069,0.220694 -9.387892,0.143487 z"
     id="path4746"
     inkscape:connector-curvature="0" />
</svg>
