<?xml version="1.0" encoding="UTF-8" standalone="no"?>
<svg
   xmlns:dc="http://purl.org/dc/elements/1.1/"
   xmlns:cc="http://creativecommons.org/ns#"
   xmlns:rdf="http://www.w3.org/1999/02/22-rdf-syntax-ns#"
   xmlns:svg="http://www.w3.org/2000/svg"
   xmlns="http://www.w3.org/2000/svg"
   xmlns:sodipodi="http://sodipodi.sourceforge.net/DTD/sodipodi-0.dtd"
   xmlns:inkscape="http://www.inkscape.org/namespaces/inkscape"
   viewBox="0 0 800 134.84"
   width="313"
   height="53"
   version="1.1"
   id="svg4768"
   sodipodi:docname="nokia.svg"
   inkscape:version="0.92.4 (5da689c313, 2019-01-14)">
  <metadata
     id="metadata4774">
    <rdf:RDF>
      <cc:Work
         rdf:about="">
        <dc:format>image/svg+xml</dc:format>
        <dc:type
           rdf:resource="http://purl.org/dc/dcmitype/StillImage" />
        <dc:title></dc:title>
      </cc:Work>
    </rdf:RDF>
  </metadata>
  <defs
     id="defs4772" />
  <sodipodi:namedview
     pagecolor="#ffffff"
     bordercolor="#666666"
     borderopacity="1"
     objecttolerance="10"
     gridtolerance="10"
     guidetolerance="10"
     inkscape:pageopacity="0"
     inkscape:pageshadow="2"
     inkscape:window-width="1600"
     inkscape:window-height="838"
     id="namedview4770"
     showgrid="false"
     inkscape:zoom="3.5782748"
     inkscape:cx="156.5"
     inkscape:cy="26.5"
     inkscape:window-x="-8"
     inkscape:window-y="-8"
     inkscape:window-maximized="1"
     inkscape:current-layer="svg4768" />
  <path
     fill="#1c4598"
     d="M38.52 133.18H0V2.18H66.62L143.05 99.98V2.18H181.57V133.18H116.3L38.52 33.71V133.18M365.87 92.67C365.87 110.88 362.65 117.16 357.32 123.18C349.15 132.14 337.26 134.84 314.35 134.84L248.58 134.84C225.67 134.84 213.76 132.14 205.6 123.18C200.27 117.16 197.05 110.88 197.05 92.67L197.05 42.17C197.05 23.97 200.27 17.7 205.6 11.67C213.77 2.7 225.67 0 248.58 0L314.35 0C337.26 0 349.15 2.7 357.32 11.67C362.65 17.7 365.87 23.97 365.87 42.17L365.87 92.67M312.73 101.65C321.53 101.65 324.63 101.13 326.74 99.21C328.71 97.42 329.58 95.11 329.58 87.41L329.58 47.43C329.58 39.73 328.71 37.44 326.74 35.64C324.63 33.71 321.53 33.2 312.73 33.2L250.19 33.2C241.39 33.2 238.29 33.71 236.19 35.64C234.21 37.44 233.34 39.73 233.34 47.43L233.34 87.41C233.34 95.11 234.21 97.42 236.19 99.21C238.29 101.13 241.39 101.65 250.19 101.65L312.73 101.65V101.65M421.85 2.18V133.18H381.6V2.18H421.85M489.85 2.18H542.99L471.27 63.45 552.16 133.18H495.3L421.85 64.86 489.85 2.18M559.58 2.18H599.84V133.18H559.58M753.31 133.18 741.4 110.36H663.51L651.74 133.17H607.27L678.62 2.18H728.66L800 133.18H753.31M677.5 81.91H727.55L702.52 34.48 677.5 81.91"
     id="path4766" />
  <path
     style="fill:#595959;fill-opacity:1;stroke-width:0.27946427"
     d="M 0,26.583839 V 1.0128571 H 12.969249 25.938497 L 40.845813,20.139352 c 8.199021,10.519571 15.001631,19.134058 15.11691,19.143303 0.115279,0.0092 0.209598,-8.597677 0.209598,-19.126494 V 1.0128571 h 7.405804 7.405804 V 26.583839 52.154821 H 58.294039 45.604153 L 30.423463,32.732054 C 22.074082,22.049531 15.14576,13.309286 15.02719,13.309286 c -0.118571,0 -0.215583,8.740245 -0.215583,19.422768 V 52.154821 H 7.4058036 0 Z"
     id="path4776"
     inkscape:connector-curvature="0"
     transform="matrix(2.5559105,0,0,2.5559105,0,-0.31162939)" />
  <path
     style="fill:#595959;fill-opacity:1;stroke-width:0.27946427"
     d="m 90.965625,52.530944 c -2.233922,-0.2117 -5.347791,-1.007877 -7.007192,-1.791646 -1.894455,-0.894788 -4.175138,-3.10224 -5.121283,-4.956835 -1.486477,-2.913737 -1.561613,-3.836346 -1.563513,-19.198624 -0.0019,-15.29738 0.06111,-16.124833 1.453431,-19.0895207 0.909032,-1.9356132 3.183023,-4.2324729 5.112218,-5.1636298 4.096121,-1.97705899 7.704909,-2.23695729 28.998734,-2.08843521 18.12492,0.12641936 19.42806,0.22711552 22.91905,1.77099951 3.42307,1.5138408 5.80623,4.4273153 6.68548,8.1731552 0.45065,1.919897 0.50343,3.65365 0.50343,16.537163 0,12.897202 -0.0513,14.578073 -0.49365,16.179535 -0.68615,2.484032 -1.72752,4.273844 -3.41555,5.870307 -1.78418,1.687399 -3.1129,2.377525 -6.0763,3.155962 -2.25461,0.592249 -2.78084,0.608268 -21.59396,0.657275 -10.60567,0.02764 -19.786074,0.0025 -20.400895,-0.05571 z M 126.99139,39.578929 c 0.44729,-0.230558 1.07608,-0.774041 1.39732,-1.207739 0.5642,-0.761736 0.58674,-1.141729 0.66306,-11.178571 0.0868,-11.418793 -0.0156,-12.380087 -1.43125,-13.437365 -0.77202,-0.576575 -1.03572,-0.586923 -16.92464,-0.66417 -17.934822,-0.08719 -17.876805,-0.09216 -18.877572,1.615523 -0.551464,0.941003 -0.573219,1.391778 -0.573219,11.877232 0,11.706502 -0.0027,11.683617 1.463659,12.645759 1.164876,0.764355 3.129664,0.848736 18.797502,0.807317 12.44014,-0.03289 14.79558,-0.102553 15.48514,-0.457986 z"
     id="path4778"
     inkscape:connector-curvature="0"
     transform="matrix(2.5559105,0,0,2.5559105,0,-0.31162939)" />
  <path
     style="fill:#595959;fill-opacity:1;stroke-width:0.27946427"
     d="M 149.51339,26.583839 V 1.0128571 h 7.68527 7.68527 V 26.583839 52.154821 h -7.68527 -7.68527 z"
     id="path4780"
     inkscape:connector-curvature="0"
     transform="matrix(2.5559105,0,0,2.5559105,0,-0.31162939)" />
  <path
     style="fill:#595959;fill-opacity:1;stroke-width:0.27946427"
     d="m 179.52791,38.815301 -14.28058,-13.310397 13.2801,-12.246023 13.28011,-12.2460239 10.22279,0.00139 10.22279,0.00139 -0.77032,0.6274065 c -5.64844,4.6004757 -26.99769,23.0693294 -26.95453,23.3178794 0.0318,0.183332 6.72311,6.072221 14.8695,13.086422 8.14638,7.014202 15.12314,13.057832 15.50391,13.430288 l 0.69231,0.677192 -10.89275,-0.01456 -10.89276,-0.01456 z"
     id="path4782"
     inkscape:connector-curvature="0"
     transform="matrix(2.5559105,0,0,2.5559105,0,-0.31162939)" />
  <path
     style="fill:#595959;fill-opacity:1;stroke-width:0.27946427"
     d="M 219.1,26.583839 V 1.0128571 h 7.68527 7.68527 V 26.583839 52.154821 H 226.78527 219.1 Z"
     id="path4784"
     inkscape:connector-curvature="0"
     transform="matrix(2.5559105,0,0,2.5559105,0,-0.31162939)" />
  <path
     style="fill:#595959;fill-opacity:1;stroke-width:0.27946427"
     d="m 239.27251,49.414395 c 0.81728,-1.511707 7.08224,-13.020317 13.92213,-25.574688 l 12.43616,-22.8261312 9.66617,-3.593e-4 9.66616,-3.594e-4 13.80884,25.3367979 c 7.59486,13.935239 13.85134,25.443936 13.90329,25.574885 0.052,0.130949 -3.95611,0.204892 -8.90681,0.164319 l -9.00127,-0.07377 -2.27176,-4.395012 -2.27176,-4.395011 h -15.37054 -15.37053 l -2.27175,4.395011 -2.27175,4.395012 -8.57628,0.07393 -8.57627,0.07393 z m 45.5016,-17.204624 c 0,-0.362574 -9.7221,-18.397317 -9.91652,-18.395391 -0.18734,0.0019 -9.92545,18.070858 -9.92545,18.416605 0,0.04503 4.46444,0.08187 9.92098,0.08187 5.45655,0 9.92099,-0.04639 9.92099,-0.103086 z"
     id="path4786"
     inkscape:connector-curvature="0"
     transform="matrix(2.5559105,0,0,2.5559105,0,-0.31162939)" />
</svg>
